# xmcd
#
# Track frame offsets:
#	150
#	20232
#	46962
#	63337
#	84010
#	117397
#	139067
#	163527
#	181845
#	206497
#	220735
#	250712
#	272272
#	294140
#
# Disc length: 4270 seconds
#
# Revision: 1
# Processed by: cddbd v1.4PL0 Copyright (c) Steve Scherf et al.
# Submitted via: audiograbber 1.81.03
#
DISCID=b910ac0e
DTITLE=Mick Martin and The Blues Rockers - Long Distance Call
DYEAR=1997
DGENRE=Blues
TTITLE0=Crosscut Saw - Just A Little Bit
TTITLE1=Call My
TTITLE2=Hallelujah, I Love Her So
TTITLE3=Talk To Me Baby (I Can't Hold Out)
TTITLE4=The Sky Is Crying
TTITLE5=Dimples
TTITLE6=Wall To Wall
TTITLE7=Back Door Man
TTITLE8=Don't Let My Baby Ride
TTITLE9=Tougher Than Life
TTITLE10=Long Distance Call
TTITLE11=I'm Ready
TTITLE12=Stop Breaking My Heart
TTITLE13=Got To Love You Bay
EXTD=
EXTT0=
EXTT1=
EXTT2=
EXTT3=
EXTT4=
EXTT5=
EXTT6=
EXTT7=
EXTT8=
EXTT9=
EXTT10=
EXTT11=
EXTT12=
EXTT13=
PLAYORDER=
